<svg width="40" height="50" viewBox="0 0 40 50" fill="none" xmlns="http://www.w3.org/2000/svg">
<path fill-rule="evenodd" clip-rule="evenodd" d="M20.0026 0.00236389C19.8186 -0.00295486 18.8916 0.00236389 18.8916 0.00236389V17.0228C18.8916 17.0313 18.8926 15.9761 18.8945 15.9846C18.9636 16.3082 20.2809 17.1682 21.6148 18.039C23.0214 18.9573 24.4464 19.8877 24.4464 20.2142C24.4464 20.5692 23.0557 21.4572 21.6659 22.3445C20.2782 23.2305 18.8916 24.1158 18.8916 24.4693V40.4259C18.8916 40.4259 19.7141 40.4366 20.0026 40.4259C31.257 39.9887 40 31.0977 40 20.2142C40 9.22851 31.4046 0.283201 20.0026 0.00236389ZM15.5793 0.00233987L1.04314 9.57635C1.00024 9.60745 0.959036 9.63718 0.919465 9.66573C0.0709872 10.2779 -0.0262028 10.3481 0.00484756 11.7039V48.9362C0.00484756 49.5234 0.469693 50 1.04314 50L14.541 41.4897C14.6695 41.3795 14.783 41.2868 14.883 41.2051C15.5068 40.6956 15.6073 40.6136 15.5793 39.3622V0.00233987Z" fill="#25272D"/>
</svg>
